<svg width="640" height="550" xmlns="http://www.w3.org/2000/svg">
  <g>
    <!-- Front living room wall -->
    <line
       id="svg_1"
       y2="10"
       x2="620"
       y1="10"
       x1="10"
       style="fill:none;stroke:#000000;stroke-width:5" />
    <!-- Right living room wall -->
    <line
       id="svg_2"
       y2="295"
       x2="620"
       y1="10"
       x1="620"
       style="fill:none;stroke:#000000;stroke-width:5" />
    <!-- Left living room wall -->
    <line
       id="svg_3"
       y2="295"
       x2="10"
       y1="10"
       x1="10"
       style="fill:none;stroke:#000000;stroke-width:5" />
    <!-- Back living room wall -->
    <line
       id="svg_4"
       y2="295"
       x2="138"
       y1="295"
       x1="10"
       style="fill:none;stroke:#000000;stroke-width:5" />
    <line
       id="svg_5"
       y2="325"
       x2="138"
       y1="325"
       x1="10"
       style="fill:none;stroke:#000000;stroke-width:5" />
    <line
       id="svg_6"
       y2="295"
       x2="138"
       y1="325"
       x1="138"
       style="fill:none;stroke:#000000;stroke-width:5" />
    <line
       id="svg_7"
       y2="495"
       x2="10"
       y1="325"
       x1="10"
       style="fill:none;stroke:#000000;stroke-width:5" />
    <line
       id="svg_8"
       y2="295"
       x2="210"
       y1="295"
       x1="620"
       style="fill:none;stroke:#000000;stroke-width:5" />
    <line
       id="svg_9"
       y2="345"
       x2="210"
       y1="295"
       x1="210"
       style="fill:none;stroke:#000000;stroke-width:5" />
    <line
       id="svg_9a"
       y2="345"
       x2="210"
       y1="385"
       x1="250"
       style="fill:none;stroke:#000000;stroke-width:5" />
    <line
       id="svg_10"
       y2="385"
       x2="560"
       y1="385"
       x1="250"
       style="fill:none;stroke:#000000;stroke-width:5" />
    <line
       id="svg_11"
       y2="495"
       x2="310"
       y1="495"
       x1="10"
       style="fill:none;stroke:#000000;stroke-width:5" />
    <line
       id="svg_12"
       y2="535"
       x2="310"
       y1="495"
       x1="310"
       style="fill:none;stroke:#000000;stroke-width:5" />
    <line
       id="svg_13"
       y2="535"
       x2="620"
       y1="535"
       x1="310"
       style="fill:none;stroke:#000000;stroke-width:5" />
    <line
       id="svg_14"
       y2="415"
       x2="620"
       y1="535"
       x1="620"
       style="fill:none;stroke:#000000;stroke-width:5" />
    <line
       id="svg_15"
       y2="415"
       x2="560"
       y1="415"
       x1="620"
       style="fill:none;stroke:#000000;stroke-width:5" />
    <line
       id="svg_16"
       y2="415"
       x2="560"
       y1="385"
       x1="560"
       style="fill:none;stroke:#000000;stroke-width:5" />
    <!-- sofa -->
    <line
       id="svg_17"
       y2="126"
       x2="484"
       y1="286"
       x1="484"
       style="fill:none;stroke:#ff0000;stroke-width:5" />
    <line
       id="svg_18"
       y2="126"
       x2="382"
       y1="126"
       x1="484"
       style="fill:none;stroke:#ff0000;stroke-width:5" />
    <line
       id="svg_19"
       y2="206"
       x2="382"
       y1="126"
       x1="382"
       style="fill:none;stroke:#ff0000;stroke-width:5" />
    <line
       id="svg_20"
       y2="206"
       x2="212"
       y1="206"
       x1="382"
       style="fill:none;stroke:#ff0000;stroke-width:5" />
    <line
       id="svg_21"
       y2="286"
       x2="212"
       y1="206"
       x1="212"
       style="fill:none;stroke:#ff0000;stroke-width:5" />
    <line
       id="svg_23"
       y2="286"
       x2="484"
       y1="286"
       x1="212"
       style="fill:none;stroke:#ff0000;stroke-width:5" />
    <line
       id="svg_28"
       y2="405"
       x2="30"
       y1="405"
       x1="130"
       style="fill:none;stroke:#000000;stroke-width:5" />
    <line
       id="svg_29"
       y2="405"
       x2="30"
       y1="335"
       x1="30"
       style="fill:none;stroke:#000000;stroke-width:5" />
    <line
       id="svg_30"
       y2="405"
       x2="130"
       y1="335"
       x1="130"
       style="fill:none;stroke:#000000;stroke-width:5" />
    <line
       id="svg_31"
       y2="335"
       x2="30"
       y1="335"
       x1="130"
       style="fill:none;stroke:#000000;stroke-width:5" />
    <!-- Television stand -->
    <line
       id="svg_32"
       y2="20"
       x2="200"
       y1="60"
       x1="200"
       style="fill:none;stroke:#ff0000;stroke-width:5" />
    <line
       id="svg_33"
       y2="20"
       x2="200"
       y1="20"
       x1="340"
       style="fill:none;stroke:#ff0000;stroke-width:5" />
    <line
       id="svg_34"
       y2="60"
       x2="200"
       y1="60"
       x1="340"
       style="fill:none;stroke:#ff0000;stroke-width:5" />
    <line
       id="svg_35"
       y2="20"
       x2="340"
       y1="60"
       x1="340"
       style="fill:none;stroke:#ff0000;stroke-width:5" />
    <!-- Computer Table -->
    <line
       id="svg_36"
       y2="230"
       x2="500"
       y1="286"
       x1="500"
       style="fill:none;stroke:#ff0000;stroke-width:5" />
    <line
       id="svg_37"
       y2="230"
       x2="560"
       y1="286"
       x1="560"
       style="fill:none;stroke:#ff0000;stroke-width:5" />
    <line
       id="svg_38"
       y2="230"
       x2="500"
       y1="230"
       x1="560"
       style="fill:none;stroke:#ff0000;stroke-width:5" />
    <line
       id="svg_39"
       y2="286"
       x2="500"
       y1="286"
       x1="560"
       style="fill:none;stroke:#ff0000;stroke-width:5" />
  </g>
</svg>
